<svg xmlns="http://www.w3.org/2000/svg" xmlns:xlink="http://www.w3.org/1999/xlink" width="720" zoomAndPan="magnify" viewBox="0 0 540 119.999999" height="160" preserveAspectRatio="xMidYMid meet" version="1.0"><defs><g/></defs><g fill="#cb6ce6" fill-opacity="1"><g transform="translate(1.101566, 95.310823)"><g><path d="M 52.84375 -69.171875 L 52.84375 -57.71875 L 22.65625 -57.71875 L 22.65625 -39.40625 L 50.046875 -39.40625 L 50.046875 -28.109375 L 22.65625 -28.109375 L 22.65625 0 L 8.984375 0 L 8.984375 -69.171875 Z M 52.84375 -69.171875 "/></g></g></g><g fill="#cb6ce6" fill-opacity="1"><g transform="translate(57.008309, 95.310823)"><g><path d="M 37.703125 1 C 31.367188 1 25.78125 -0.289062 20.9375 -2.875 C 16.09375 -5.46875 12.296875 -9.421875 9.546875 -14.734375 C 6.804688 -20.046875 5.4375 -26.660156 5.4375 -34.578125 C 5.4375 -42.492188 6.804688 -49.109375 9.546875 -54.421875 C 12.296875 -59.742188 16.09375 -63.695312 20.9375 -66.28125 C 25.78125 -68.863281 31.367188 -70.15625 37.703125 -70.15625 C 44.046875 -70.15625 49.628906 -68.867188 54.453125 -66.296875 C 59.273438 -63.734375 63.050781 -59.785156 65.78125 -54.453125 C 68.507812 -49.117188 69.875 -42.492188 69.875 -34.578125 C 69.875 -26.660156 68.507812 -20.035156 65.78125 -14.703125 C 63.050781 -9.378906 59.273438 -5.429688 54.453125 -2.859375 C 49.628906 -0.285156 44.046875 1 37.703125 1 Z M 37.703125 -10.875 C 43.566406 -10.875 48.046875 -12.757812 51.140625 -16.53125 C 54.234375 -20.300781 55.78125 -26.316406 55.78125 -34.578125 C 55.78125 -42.847656 54.234375 -48.875 51.140625 -52.65625 C 48.046875 -56.4375 43.566406 -58.328125 37.703125 -58.328125 C 31.804688 -58.328125 27.300781 -56.4375 24.1875 -52.65625 C 21.082031 -48.875 19.53125 -42.847656 19.53125 -34.578125 C 19.53125 -26.316406 21.082031 -20.300781 24.1875 -16.53125 C 27.300781 -12.757812 31.804688 -10.875 37.703125 -10.875 Z M 37.703125 -10.875 "/></g></g></g><g fill="#cb6ce6" fill-opacity="1"><g transform="translate(132.354718, 95.310823)"><g><path d="M 37.703125 1 C 31.367188 1 25.78125 -0.289062 20.9375 -2.875 C 16.09375 -5.46875 12.296875 -9.421875 9.546875 -14.734375 C 6.804688 -20.046875 5.4375 -26.660156 5.4375 -34.578125 C 5.4375 -42.492188 6.804688 -49.109375 9.546875 -54.421875 C 12.296875 -59.742188 16.09375 -63.695312 20.9375 -66.28125 C 25.78125 -68.863281 31.367188 -70.15625 37.703125 -70.15625 C 44.046875 -70.15625 49.628906 -68.867188 54.453125 -66.296875 C 59.273438 -63.734375 63.050781 -59.785156 65.78125 -54.453125 C 68.507812 -49.117188 69.875 -42.492188 69.875 -34.578125 C 69.875 -26.660156 68.507812 -20.035156 65.78125 -14.703125 C 63.050781 -9.378906 59.273438 -5.429688 54.453125 -2.859375 C 49.628906 -0.285156 44.046875 1 37.703125 1 Z M 37.703125 -10.875 C 43.566406 -10.875 48.046875 -12.757812 51.140625 -16.53125 C 54.234375 -20.300781 55.78125 -26.316406 55.78125 -34.578125 C 55.78125 -42.847656 54.234375 -48.875 51.140625 -52.65625 C 48.046875 -56.4375 43.566406 -58.328125 37.703125 -58.328125 C 31.804688 -58.328125 27.300781 -56.4375 24.1875 -52.65625 C 21.082031 -48.875 19.53125 -42.847656 19.53125 -34.578125 C 19.53125 -26.316406 21.082031 -20.300781 24.1875 -16.53125 C 27.300781 -12.757812 31.804688 -10.875 37.703125 -10.875 Z M 37.703125 -10.875 "/></g></g></g><g fill="#cb6ce6" fill-opacity="1"><g transform="translate(207.701127, 95.310823)"><g><path d="M 33.875 -69.171875 C 45.101562 -69.171875 53.671875 -66.265625 59.578125 -60.453125 C 65.492188 -54.648438 68.453125 -46.023438 68.453125 -34.578125 C 68.453125 -23.160156 65.492188 -14.539062 59.578125 -8.71875 C 53.671875 -2.90625 45.101562 0 33.875 0 L 8.984375 0 L 8.984375 -69.171875 Z M 33.0625 -11.5 C 40.195312 -11.5 45.53125 -13.316406 49.0625 -16.953125 C 52.59375 -20.597656 54.359375 -26.472656 54.359375 -34.578125 C 54.359375 -42.679688 52.59375 -48.554688 49.0625 -52.203125 C 45.53125 -55.847656 40.195312 -57.671875 33.0625 -57.671875 L 22.65625 -57.671875 L 22.65625 -11.5 Z M 33.0625 -11.5 "/></g></g></g><g fill="#004aad" fill-opacity="1"><g transform="translate(281.648433, 95.310823)"><g><path d="M 37.796875 1 C 31.429688 1 25.816406 -0.320312 20.953125 -2.96875 C 16.097656 -5.625 12.296875 -9.609375 9.546875 -14.921875 C 6.804688 -20.234375 5.4375 -26.785156 5.4375 -34.578125 C 5.4375 -42.367188 6.804688 -48.921875 9.546875 -54.234375 C 12.296875 -59.554688 16.097656 -63.539062 20.953125 -66.1875 C 25.816406 -68.832031 31.429688 -70.15625 37.796875 -70.15625 C 44.453125 -70.15625 50.101562 -68.851562 54.75 -66.25 C 59.40625 -63.65625 62.726562 -59.691406 64.71875 -54.359375 L 54.734375 -48.25 L 53.5625 -48.296875 C 52.070312 -51.898438 50.054688 -54.476562 47.515625 -56.03125 C 44.984375 -57.59375 41.742188 -58.375 37.796875 -58.375 C 32.054688 -58.375 27.578125 -56.472656 24.359375 -52.671875 C 21.140625 -48.878906 19.53125 -42.847656 19.53125 -34.578125 C 19.53125 -26.347656 21.140625 -20.332031 24.359375 -16.53125 C 27.578125 -12.726562 32.054688 -10.828125 37.796875 -10.828125 C 46.785156 -10.828125 52.289062 -15.195312 54.3125 -23.9375 L 55.5 -23.9375 L 65.578125 -18.6875 C 63.679688 -12.125 60.445312 -7.203125 55.875 -3.921875 C 51.300781 -0.640625 45.273438 1 37.796875 1 Z M 37.796875 1 "/></g></g></g><g fill="#004aad" fill-opacity="1"><g transform="translate(349.474379, 95.310823)"><g><path d="M 66.375 0 L 52 0 L 46.796875 -15.9375 L 20.296875 -15.9375 L 15.09375 0 L 1.046875 0 L 24.9375 -69.171875 L 42.484375 -69.171875 Z M 32.875 -54.734375 L 23.984375 -27.4375 L 43 -27.4375 L 34.0625 -54.734375 Z M 32.875 -54.734375 "/></g></g></g><g fill="#004aad" fill-opacity="1"><g transform="translate(416.874651, 95.310823)"><g><path d="M 8.984375 0 L 8.984375 -69.171875 L 36.765625 -69.171875 C 43.921875 -69.171875 49.316406 -67.519531 52.953125 -64.21875 C 56.597656 -60.925781 58.421875 -56.378906 58.421875 -50.578125 C 58.421875 -46.378906 57.359375 -42.9375 55.234375 -40.25 C 53.109375 -37.570312 49.929688 -35.523438 45.703125 -34.109375 L 45.703125 -33.109375 C 47.878906 -32.171875 49.632812 -30.769531 50.96875 -28.90625 C 52.3125 -27.039062 53.582031 -24.28125 54.78125 -20.625 L 61.6875 0 L 47.640625 0 L 40.875 -20.671875 C 40.175781 -22.753906 39.394531 -24.367188 38.53125 -25.515625 C 37.664062 -26.671875 36.5625 -27.507812 35.21875 -28.03125 C 33.882812 -28.550781 32.144531 -28.8125 30 -28.8125 L 22.65625 -28.8125 L 22.65625 0 Z M 35.109375 -39.640625 C 41.722656 -39.640625 45.03125 -42.734375 45.03125 -48.921875 C 45.03125 -55.191406 41.722656 -58.328125 35.109375 -58.328125 L 22.65625 -58.328125 L 22.65625 -39.640625 Z M 35.109375 -39.640625 "/></g></g></g><g fill="#004aad" fill-opacity="1"><g transform="translate(481.531615, 95.310823)"><g><path d="M 55.453125 -69.171875 L 55.453125 -57.671875 L 35.484375 -57.671875 L 35.484375 0 L 21.859375 0 L 21.859375 -57.671875 L 1.890625 -57.671875 L 1.890625 -69.171875 Z M 55.453125 -69.171875 "/></g></g></g></svg>